<svg width="261" height="258" viewBox="0 0 261 258" fill="none" xmlns="http://www.w3.org/2000/svg">
<path d="M147.188 7.15981L148.683 8.61325L260.325 122.425L248.351 135.063L232.978 119.394L232.987 239.525C232.987 248.866 226.018 256.523 217.178 257.197L215.906 257.25H45.0945C36.0927 257.25 28.7137 250.018 28.0561 240.846L28.0134 239.525L28.0048 119.403L12.6489 135.063L0.675049 122.425L112.198 8.72846C121.703 -1.33931 137.034 -1.89765 147.188 7.15981ZM125.102 20.489L124.283 21.26L45.0859 101.988L45.0945 239.525L87.7887 239.516L87.7973 150.9C87.7973 141.559 94.7663 133.902 103.606 133.22L104.878 133.175H156.122C165.123 133.175 172.502 140.407 173.16 149.58L173.203 150.9L173.194 239.516L215.906 239.525L215.897 101.979L136.478 21.0119C133.37 17.848 128.519 17.653 125.102 20.489ZM156.122 150.9H104.878L104.87 239.516H156.113L156.122 150.9Z" fill="#0066FF"/>
<path d="M147.188 7.15981L148.683 8.61325L260.325 122.425L248.351 135.063L232.978 119.394L232.987 239.525C232.987 248.866 226.018 256.523 217.178 257.197L215.906 257.25H45.0945C36.0927 257.25 28.7137 250.018 28.0561 240.846L28.0134 239.525L28.0048 119.403L12.6489 135.063L0.675049 122.425L112.198 8.72846C121.703 -1.33931 137.034 -1.89765 147.188 7.15981ZM125.102 20.489L124.283 21.26L45.0859 101.988L45.0945 239.525L87.7887 239.516L87.7973 150.9C87.7973 141.559 94.7663 133.902 103.606 133.22L104.878 133.175H156.122C165.123 133.175 172.502 140.407 173.16 149.58L173.203 150.9L173.194 239.516L215.906 239.525L215.897 101.979L136.478 21.0119C133.37 17.848 128.519 17.653 125.102 20.489ZM156.122 150.9H104.878L104.87 239.516H156.113L156.122 150.9Z" stroke="white"/>
</svg>
